<svg id="Layer_1" data-name="Layer 1" xmlns="http://www.w3.org/2000/svg" viewBox="0 0 512 512"><title>stumbleupon-square-flat</title><g id="Stumbleupon"><rect id="back" width="512" height="512" fill="#ea4b24"/><path id="Stumbleupon-2" data-name="Stumbleupon" d="M335.29,363.49c-35.28,0-66.25-27.85-66.48-62.29V257l22,16.86,25-17.93v46c0,8.14,11,15.43,19.36,15.43s16.39-7.29,16.39-15.43V255.53h47.81V300.6C399.36,335.4,370.69,363.49,335.29,363.49ZM256,196.81c-8.36,0-12.19,6.58-12.19,14.83v89.79c-.6,34.44-31.94,62.05-67.07,62.05-35.39,0-64.11-28.09-64.11-62.89V256.12h47.23v44c0,8.13,8.61,14.83,17,14.83s18.78-6.7,18.78-14.83v-91c1.18-33.72,26.55-60.62,61.08-60.62,34.8,0,57.89,27.14,59,61v20l-21.86,13.76L269,229V211.64C269,203.39,264.39,196.81,256,196.81Z" fill="#fff"/></g></svg>