<svg xmlns="http://www.w3.org/2000/svg" viewBox="0 0 512 512"><title>drink-flat</title><g style="isolation:isolate"><g id="Layer_1" data-name="Layer 1"><path d="M496.92,256c0,133.06-107.86,240.92-240.93,240.92S15.08,389.06,15.08,256,122.94,15.08,256,15.08,496.92,122.94,496.92,256Z" fill="#f69221"/><path d="M256,15.08c133.07,0,240.93,107.87,240.93,240.93S389.06,496.92,256,496.92,15.08,389.06,15.08,256,122.94,15.08,256,15.08M256,0C114.84,0,0,114.84,0,256S114.84,512,256,512,512,397.16,512,256,397.16,0,256,0Z" fill="#fff"/><path d="M309.52,490.89C415.63,466.8,495.1,372.74,496.84,259.76L344.77,125.92l-59.18-1.59-16.94,92.76-71.4,179Z" fill="#cc781b"/><polygon points="299.02 396.11 197.25 396.11 187.2 188.81 309.07 188.81 299.02 396.11" fill="#fff"/><polygon points="199.73 256 205.55 387.31 290.71 387.31 296.53 256 199.73 256" fill="#f69221"/><rect x="188.49" y="197.77" width="167.73" height="10.36" transform="translate(41.78 452.35) rotate(-83.94)" fill="#f69221"/><path d="M291,120.21a15.06,15.06,0,0,0-16.58,13.4l-5.82,55.21h10.42L285.32,130l59.44,6.32V125.92Z" fill="#fff"/><path d="M291,120.21a15.06,15.06,0,0,0-16.58,13.4l-5.82,55.21h10.42L285.32,130l59.44,6.32V125.92Z" fill="#d1d1d1" style="mix-blend-mode:multiply"/><polygon points="246.55 396.11 299.02 396.11 309.07 188.81 246.55 188.81 246.55 396.11" fill="#d1d1d1" style="mix-blend-mode:multiply"/></g></g></svg>